<svg width="654" height="172" viewBox="0 0 654 172" fill="none" xmlns="http://www.w3.org/2000/svg">
<g clip-path="url('#clip0_1_886')">
<path d="M25.216 60.584C25.216 57 28.032 54.184 31.488 54.184H134.4C135.552 54.184 136.576 55.208 136.576 56.36V61.224C136.576 64.68 133.76 67.624 130.176 67.624H88.064C87.552 67.624 87.04 68.008 87.04 68.648V114.728C87.04 118.184 84.224 121 80.64 121H76.8C75.648 121 74.624 120.104 74.624 118.952V68.648C74.624 68.008 74.24 67.624 73.6 67.624H27.264C26.112 67.624 25.216 66.6 25.216 65.448V60.584ZM142.316 121C141.036 121 140.268 119.592 141.036 118.568L184.94 59.176C187.244 56.104 191.98 54.184 195.948 54.184C199.788 54.184 204.524 56.104 206.828 59.176L250.732 118.568C251.628 119.592 250.86 121 249.452 121H241.388C238.7 121 236.14 119.848 234.476 117.672L196.716 66.6C196.332 66.088 195.436 66.088 195.052 66.6L157.292 117.672C155.756 119.848 153.196 121 150.508 121H142.316ZM375.247 114.728C376.015 115.368 376.655 116.136 376.783 117.16C377.039 119.208 375.375 121.128 373.327 121.128H367.695C364.879 121.128 362.063 120.104 359.887 118.44L331.983 96.936C329.807 95.272 326.991 94.376 324.175 94.376H278.863C278.223 94.376 277.711 94.76 277.711 95.4V114.728C277.711 118.184 274.895 121 271.311 121H267.471C266.319 121 265.423 120.104 265.423 118.952V88.36C265.423 84.904 268.239 81.96 271.695 81.96H357.711C361.423 81.96 364.495 78.888 364.367 75.176C364.239 71.464 361.039 67.624 357.455 67.624H271.695C268.239 67.624 265.423 64.68 265.423 61.224V56.36C265.423 55.208 266.319 54.184 267.471 54.184H356.687C368.079 54.184 377.167 64.68 376.783 76.072C376.399 86.952 367.055 94.376 356.175 94.376H350.543C349.903 94.376 349.647 95.016 350.159 95.4L375.247 114.728ZM506.814 54.184C508.734 54.184 510.27 55.72 510.27 57.64C510.27 58.664 509.758 59.688 508.862 60.328L474.814 86.824C474.174 87.208 474.174 88.104 474.814 88.488L508.862 114.856C509.758 115.496 510.27 116.52 510.27 117.544V117.672C510.27 119.464 508.734 121 506.814 121H501.182C498.366 121 495.55 120.104 493.374 118.44L462.654 94.76C462.27 94.504 461.886 94.376 461.374 94.376H412.35C411.71 94.376 411.198 94.76 411.198 95.4V114.728C411.198 118.184 408.382 121 404.798 121H400.958C399.806 121 398.91 120.104 398.91 118.952V56.36C398.91 55.208 399.806 54.184 400.958 54.184H404.798C408.382 54.184 411.198 57 411.198 60.584V79.912C411.198 80.424 411.71 80.936 412.35 80.936H461.502C461.886 80.936 462.398 80.808 462.782 80.552L493.246 56.872C495.55 55.208 498.238 54.184 501.054 54.184C502.206 54.184 504.894 54.184 506.814 54.184ZM520.196 121C518.916 121 518.148 119.592 518.916 118.568L562.82 59.176C565.124 56.104 569.86 54.184 573.828 54.184C577.668 54.184 582.404 56.104 584.708 59.176L628.612 118.568C629.508 119.592 628.74 121 627.332 121H619.268C616.58 121 614.02 119.848 612.356 117.672L574.596 66.6C574.212 66.088 573.316 66.088 572.932 66.6L535.172 117.672C533.636 119.848 531.076 121 528.388 121H520.196Z" fill="#00425C"></path>
</g>
<defs>
<clipPath id="clip0_1_886">
<rect width="654" height="172" fill="white"></rect>
</clipPath>
</defs>
</svg>
