<svg width="654" height="172" fill="none" xmlns="http://www.w3.org/2000/svg"><g clip-path="url('#clip0_1_886')"><path d="M25.216 60.584c0-3.584 2.816-6.4 6.272-6.4H134.4c1.152 0 2.176 1.024 2.176 2.176v4.864c0 3.456-2.816 6.4-6.4 6.4H88.064c-.512 0-1.024.384-1.024 1.024v46.08c0 3.456-2.816 6.272-6.4 6.272H76.8c-1.152 0-2.176-.896-2.176-2.048V68.648c0-.64-.384-1.024-1.024-1.024H27.264c-1.152 0-2.048-1.024-2.048-2.176v-4.864ZM142.316 121c-1.28 0-2.048-1.408-1.28-2.432l43.904-59.392c2.304-3.072 7.04-4.992 11.008-4.992 3.84 0 8.576 1.92 10.88 4.992l43.904 59.392c.896 1.024.128 2.432-1.28 2.432h-8.064c-2.688 0-5.248-1.152-6.912-3.328L196.716 66.6c-.384-.512-1.28-.512-1.664 0l-37.76 51.072c-1.536 2.176-4.096 3.328-6.784 3.328h-8.192Zm232.931-6.272c.768.64 1.408 1.408 1.536 2.432.256 2.048-1.408 3.968-3.456 3.968h-5.632c-2.816 0-5.632-1.024-7.808-2.688l-27.904-21.504c-2.176-1.664-4.992-2.56-7.808-2.56h-45.312c-.64 0-1.152.384-1.152 1.024v19.328c0 3.456-2.816 6.272-6.4 6.272h-3.84a2.022 2.022 0 0 1-2.048-2.048V88.36c0-3.456 2.816-6.4 6.272-6.4h86.016c3.712 0 6.784-3.072 6.656-6.784-.128-3.712-3.328-7.552-6.912-7.552h-85.76c-3.456 0-6.272-2.944-6.272-6.4V56.36c0-1.152.896-2.176 2.048-2.176h89.216c11.392 0 20.48 10.496 20.096 21.888-.384 10.88-9.728 18.304-20.608 18.304h-5.632c-.64 0-.896.64-.384 1.024l25.088 19.328Zm131.567-60.544a3.442 3.442 0 0 1 3.456 3.456c0 1.024-.512 2.048-1.408 2.688l-34.048 26.496a.961.961 0 0 0 0 1.664l34.048 26.368c.896.64 1.408 1.664 1.408 2.688v.128c0 1.792-1.536 3.328-3.456 3.328h-5.632c-2.816 0-5.632-.896-7.808-2.56l-30.72-23.68a2.162 2.162 0 0 0-1.28-.384H412.35c-.64 0-1.152.384-1.152 1.024v19.328c0 3.456-2.816 6.272-6.4 6.272h-3.84a2.022 2.022 0 0 1-2.048-2.048V56.36c0-1.152.896-2.176 2.048-2.176h3.84c3.584 0 6.4 2.816 6.4 6.4v19.328c0 .512.512 1.024 1.152 1.024h49.152a2.47 2.47 0 0 0 1.28-.384l30.464-23.68c2.304-1.664 4.992-2.688 7.808-2.688h5.76ZM520.196 121c-1.28 0-2.048-1.408-1.28-2.432l43.904-59.392c2.304-3.072 7.04-4.992 11.008-4.992 3.84 0 8.576 1.92 10.88 4.992l43.904 59.392c.896 1.024.128 2.432-1.28 2.432h-8.064c-2.688 0-5.248-1.152-6.912-3.328L574.596 66.6c-.384-.512-1.28-.512-1.664 0l-37.76 51.072c-1.536 2.176-4.096 3.328-6.784 3.328h-8.192Z" fill="#00425C"/></g><defs><clipPath id="clip0_1_886"><path fill="#fff" d="M0 0h654v172H0z"/></clipPath></defs></svg>